<svg version="1.0" xmlns="http://www.w3.org/2000/svg"
 width="512.000000pt" height="512.000000pt" viewBox="0 0 512.000000 512.000000"
 preserveAspectRatio="xMidYMid meet">

<g transform="translate(0.000000,512.000000) scale(0.100000,-0.100000)"
fill="#000000" stroke="none">
<path d="M765 5096 c-59 -27 -77 -46 -104 -106 -18 -38 -21 -67 -21 -190 l-1
-145 -69 -33 c-165 -78 -288 -230 -335 -412 -21 -81 -22 -224 -2 -307 44 -184
191 -360 362 -433 l45 -19 0 -144 0 -144 -42 -19 c-137 -60 -248 -166 -312
-299 -54 -110 -68 -170 -68 -285 0 -115 14 -175 68 -285 64 -133 175 -239 311
-299 l43 -19 0 -143 0 -142 -78 -38 c-59 -29 -96 -57 -157 -118 -129 -130
-187 -270 -187 -451 0 -246 135 -464 352 -567 l69 -33 1 -145 c0 -131 3 -150
24 -196 26 -57 58 -85 119 -109 38 -14 207 -15 1727 -13 1893 4 1720 -4 1898
79 276 128 459 381 491 681 15 134 15 3462 0 3596 -32 300 -215 553 -491 681
-177 82 -5 75 -1903 78 l-1690 3 -50 -24z m945 -2536 l0 -2130 -319 0 -319 0
-4 133 c-3 118 -6 137 -28 177 -37 65 -89 97 -189 114 -103 18 -150 48 -186
119 -54 110 -12 231 99 283 88 41 174 25 243 -46 37 -37 48 -66 62 -160 19
-120 99 -193 211 -193 72 0 133 31 175 91 41 59 47 163 15 278 -50 186 -168
329 -337 414 l-63 31 0 232 c0 128 -5 252 -11 276 -21 95 -83 146 -198 166
-96 17 -127 32 -169 79 -125 142 -9 360 183 344 108 -9 175 -83 193 -215 12
-82 39 -131 99 -171 33 -23 48 -27 113 -27 65 0 80 4 113 27 65 44 91 92 95
174 12 225 -129 461 -341 570 l-76 39 -3 255 c-3 207 -6 262 -19 290 -34 73
-117 129 -194 130 -54 0 -137 41 -167 81 -54 73 -61 148 -23 226 73 145 269
157 365 23 13 -18 27 -64 36 -110 16 -95 31 -126 78 -168 78 -68 194 -68 273
1 50 44 73 98 73 177 0 225 -147 457 -352 553 -45 21 -68 38 -68 50 0 16 22
17 320 17 l320 0 0 -2130z m1920 0 l0 -2130 -750 0 -750 0 0 2130 0 2130 750
0 750 0 0 -2130z m551 2111 c142 -45 250 -160 284 -305 22 -92 22 -3520 0
-3612 -33 -142 -137 -255 -279 -304 -33 -11 -76 -20 -98 -20 l-38 0 0 2130 0
2130 34 0 c19 0 62 -9 97 -19z"/>
</g>
</svg>
