<svg version="1.0" xmlns="http://www.w3.org/2000/svg"
 width="512.000000pt" height="512.000000pt" viewBox="0 0 512.000000 512.000000"
 preserveAspectRatio="xMidYMid meet">

<g transform="translate(0.000000,512.000000) scale(0.100000,-0.100000)"
fill="#000000" stroke="none">
<path d="M2393 5105 c-94 -17 -162 -40 -253 -85 -77 -39 -615 -424 -682 -488
-47 -45 -61 -87 -56 -163 5 -62 32 -109 91 -153 42 -31 155 -35 201 -8 19 11
150 107 292 213 311 232 330 244 419 271 130 40 272 26 395 -38 91 -48 1662
-1303 1710 -1367 20 -26 45 -71 56 -100 18 -50 19 -87 19 -1162 0 -1049 -1
-1113 -18 -1170 -67 -216 -231 -376 -442 -430 -46 -12 -123 -15 -350 -15 -289
0 -292 0 -313 23 -20 22 -21 29 -24 552 l-3 530 -26 71 c-64 175 -202 305
-372 350 -40 11 -147 14 -475 14 l-423 0 -76 -25 c-188 -63 -318 -211 -359
-405 -12 -58 -15 -125 -12 -296 l3 -221 30 -48 c42 -68 100 -98 181 -93 75 5
128 37 165 101 23 40 24 51 29 278 5 219 7 239 25 259 45 49 50 50 442 50 351
0 369 -1 401 -20 62 -38 62 -38 62 -587 0 -549 3 -574 62 -685 40 -75 139
-168 220 -207 101 -48 164 -54 501 -49 286 5 307 6 402 31 382 101 667 399
746 782 18 85 19 156 19 1226 0 1107 -1 1138 -20 1215 -27 105 -88 226 -156
308 -43 52 -239 214 -848 700 -435 347 -816 650 -846 672 -204 151 -470 214
-717 169z"/>
<path d="M635 3815 c-59 -26 -261 -192 -318 -260 -71 -84 -130 -202 -157 -311
-20 -78 -20 -106 -18 -1250 l3 -1169 28 -88 c111 -355 372 -609 726 -705 l96
-26 605 -4 c428 -2 616 0 643 8 21 6 56 27 78 47 102 92 77 263 -48 324 l-48
24 -600 6 c-650 6 -623 3 -751 66 -134 65 -247 194 -302 343 l-27 75 -3 1109
c-3 1232 -6 1167 64 1273 24 38 67 77 150 139 91 67 120 95 135 128 35 77 16
179 -42 233 -54 50 -151 67 -214 38z"/>
</g>
</svg>
