<svg version="1.0" xmlns="http://www.w3.org/2000/svg"
 width="512.000000pt" height="512.000000pt" viewBox="0 0 512.000000 512.000000"
 preserveAspectRatio="xMidYMid meet">

<g transform="translate(0.000000,512.000000) scale(0.100000,-0.100000)"
fill="#000000" stroke="none">
<path d="M1080 4975 c-8 -2 -49 -9 -90 -15 -232 -38 -459 -157 -636 -334 -169
-170 -279 -370 -330 -606 -18 -80 -19 -146 -19 -1060 0 -914 1 -980 19 -1060
51 -236 161 -436 330 -606 139 -138 295 -235 474 -293 181 -59 99 -56 1737
-56 1435 0 1514 1 1595 19 482 105 845 476 941 961 21 103 21 1967 0 2070 -95
479 -440 838 -921 958 -84 21 -94 21 -1585 23 -825 1 -1507 1 -1515 -1z m3030
-417 c163 -49 276 -114 375 -215 71 -70 146 -184 175 -261 58 -154 55 -96 55
-1122 0 -1026 3 -968 -55 -1122 -66 -177 -261 -372 -438 -438 -157 -59 -36
-55 -1617 -58 -1552 -3 -1532 -4 -1676 47 -202 72 -398 259 -469 449 -58 154
-55 96 -55 1122 0 1026 -3 968 55 1122 70 186 263 374 458 445 144 53 89 51
1667 50 1341 -2 1475 -4 1525 -19z"/>
<path d="M2732 3939 c-56 -17 -108 -79 -131 -156 -11 -37 -118 -408 -238 -823
-238 -827 -241 -838 -194 -913 47 -77 139 -111 228 -86 55 15 112 68 130 119
6 19 114 391 240 825 249 865 251 873 204 948 -47 76 -150 113 -239 86z"/>
<path d="M1530 3739 c-25 -8 -97 -72 -263 -237 -126 -125 -243 -249 -261 -277
-99 -150 -111 -343 -30 -503 28 -57 68 -102 276 -309 213 -212 248 -243 288
-253 90 -24 178 8 228 83 36 55 38 154 4 208 -12 20 -112 123 -223 229 -110
106 -207 206 -215 221 -32 63 -30 67 215 313 250 252 260 268 247 365 -17 122
-142 197 -266 160z"/>
<path d="M3472 3739 c-69 -21 -132 -111 -132 -189 0 -78 15 -98 251 -336 245
-246 247 -250 214 -313 -8 -16 -104 -115 -215 -221 -110 -106 -210 -209 -223
-229 -33 -54 -31 -153 5 -208 50 -75 138 -107 228 -83 40 10 75 42 288 253
214 213 247 250 278 312 49 100 64 209 42 314 -30 145 -49 172 -303 429 -126
128 -245 242 -262 253 -38 24 -124 33 -171 18z"/>
<path d="M1532 529 c-18 -5 -50 -27 -72 -49 -88 -88 -74 -232 29 -305 l43 -30
1028 0 1028 0 43 30 c114 81 114 249 0 330 l-43 30 -1011 2 c-621 1 -1025 -2
-1045 -8z"/>
</g>
</svg>
